<svg width="57" height="30" viewBox="0 0 57 30" fill="none" xmlns="http://www.w3.org/2000/svg">
<path d="M12.796 0C15.1929 0 17.2418 0.850308 18.9428 2.55092C20.6438 4.25154 21.4943 6.30001 21.4943 8.69633C21.4943 11.0927 20.6438 13.1411 18.9428 14.8417C17.2418 16.5424 15.1929 17.3927 12.796 17.3927H7.73175V22.224L0 29.954V6.39663L6.39802 0H12.796ZM7.73175 7.73007V9.66259H12.796C13.0666 9.66259 13.2922 9.5724 13.4726 9.39204C13.6659 9.19878 13.7625 8.96688 13.7625 8.69633C13.7625 8.42578 13.6659 8.20032 13.4726 8.01995C13.2922 7.8267 13.0666 7.73007 12.796 7.73007H7.73175Z" fill="white"/>
<path d="M30 22.2699L22.2759 30V7.77605L30 0.045977V22.2699Z" fill="white"/>
<path d="M29.0805 0.045977L22.2759 6.8046V0.045977H29.0805Z" fill="white"/>
<path d="M56.5977 0L48.8683 7.73436H30.7816C30.7816 8.48947 30.7816 8.91283 30.7816 9.66794H48.8683L41.6027 17.4023H30.7816V0H56.5977Z" fill="white"/>
</svg>